<svg width="160" height="32" viewBox="0 0 160 32" fill="none" xmlns="http://www.w3.org/2000/svg">
<g clip-path="url(#clip0_6_181)">
<path d="M54.2829 4.52087H49.3137L39.834 27.8668H45.0891L46.9956 22.9667H56.4116L58.2817 27.8668H63.7644L54.2848 4.52087H54.2829ZM48.5744 18.937L49.5085 16.4533C50.1313 14.8017 50.7631 13.0755 51.3258 11.4622C51.4787 10.9578 51.6062 10.3933 51.6426 9.79424H51.8484C51.8811 10.4061 51.9959 11.0124 52.147 11.5004C52.5294 12.7405 53.3306 14.7981 53.8933 16.324L54.8602 18.937H48.5725H48.5744Z" fill="#0F2156"/>
<path d="M65.4725 4.52271H72.2773C77.2775 4.52271 81.065 5.46412 81.7169 9.68317C82.0374 11.7627 80.9503 14.0952 78.7288 15.0986V15.1623C81.695 16.0327 83.0462 18.5874 83.0462 20.9219C83.0462 23.7861 81.0122 27.8668 75.4184 27.8668H65.4707V4.52271H65.4725ZM73.1331 13.5271C76.3798 13.5271 77.1537 12.1542 77.0899 10.5062C77.0371 9.16785 76.3233 8.1354 73.1331 8.1354H70.4236V13.5271H73.1331ZM74.0946 23.6696C77.2903 23.6696 78.4738 22.3749 78.4028 20.4812C78.3391 18.7641 77.3449 17.3966 74.0946 17.3966H70.4236V23.6714H74.0946V23.6696Z" fill="#0F2156"/>
<path d="M93.4258 17.1689C92.264 15.5247 91.1041 13.8148 90.0079 12.1705L89.9424 12.2033C89.9751 13.8804 90.0079 16.5844 90.0079 18.5201V27.8723H85.0732V4.52271H90.0079L96.9401 14.3902L103.872 4.52271H108.741V27.8686H103.614V18.5164C103.614 16.5808 103.647 13.8767 103.678 12.1997L103.614 12.1669C102.518 13.8112 101.356 15.521 100.196 17.1653L96.8108 21.9707L93.4258 17.1653V17.1689Z" fill="#0F2156"/>
<path d="M125.711 27.865H113.833V4.52087H115.807V26.1315H126.277L125.709 27.8632L125.711 27.865Z" fill="#0F2156"/>
<path d="M143.018 27.8668L140.271 19.8657H131.128L128.384 27.865L126.568 27.8559L134.835 4.52271H136.705C139.477 11.9338 144.981 27.8668 144.981 27.8668H143.022H143.018ZM136.079 7.60551C135.941 7.15575 135.837 6.77517 135.802 6.25439H135.629C135.595 6.77335 135.525 7.15575 135.387 7.60551L131.681 18.2724H139.717L136.081 7.60551H136.079Z" fill="#0F2156"/>
<path d="M151.742 27.8668H145.868V4.47534H151.604C156.2 4.47534 159.137 6.05954 159.137 10.3787C159.137 12.9353 157.513 14.6979 155.75 15.5283V15.7013C158.307 16.5644 160 18.3616 160 21.2988C160 26.2407 156.198 27.865 151.741 27.865L151.742 27.8668ZM151.906 6.15787H147.735V15.0767H152.402C155.306 15.0767 157.172 13.1757 157.172 10.3751C157.172 7.57454 155.295 6.15787 151.906 6.15787ZM152.678 16.6318H147.736V26.2061C147.736 26.2061 150.918 26.2498 151.954 26.2061C155.854 26.0422 157.968 24.6857 157.968 21.2642C157.968 18.4636 156.033 16.6318 152.68 16.6318H152.678Z" fill="#0F2156"/>
<path d="M6.89944 32.0076C10.7099 32.0076 13.7989 28.9186 13.7989 25.1082C13.7989 21.2977 10.7099 18.2087 6.89944 18.2087C3.08898 18.2087 0 21.2977 0 25.1082C0 28.9186 3.08898 32.0076 6.89944 32.0076Z" fill="#2C6DFF"/>
<path d="M34.8374 25.1063C34.8374 28.9157 31.8256 31.9384 27.938 32.0058C24.5948 32.0641 20.9948 29.34 21.0385 25.1063C21.0586 23.1343 21.7451 22.1528 22.0255 21.2788C22.4971 19.813 22.9068 18.0412 21.9672 16.4115C20.9967 14.7308 19.4252 13.895 17.4222 13.7912C16.9797 13.7675 14.5561 13.6437 12.8098 12.0377C10.8505 10.2349 10.5137 8.11176 10.5137 6.89175C10.5155 3.07876 13.6038 -0.00769043 17.4149 -0.00769043C21.2261 -0.00769043 24.3144 3.07876 24.3144 6.89175C24.3144 8.15182 23.728 9.71417 23.3165 10.4698C22.4752 12.0158 22.4479 13.9496 23.3912 15.583C24.3617 17.2673 26.2099 18.0139 27.9362 18.2069C31.9221 18.653 34.8392 21.2952 34.8392 25.1063H34.8374Z" fill="#0F2156"/>
</g>
<defs>
<clipPath id="clip0_6_181">
<rect width="160" height="32.0153" fill="white" transform="translate(0 -0.00769043)"/>
</clipPath>
</defs>
</svg>
