<svg width="196" height="48" viewBox="0 0 196 48" fill="none" xmlns="http://www.w3.org/2000/svg">
<g clip-path="url(#clip0_2_1018)">
<path d="M75.8768 0.0532227H70.2367L59.4785 26.5474H65.4444L67.6061 20.9868H78.2901L80.4121 26.5474H86.635L75.8768 0.0532227ZM69.3969 16.4144L70.4566 13.5957C71.1639 11.7227 71.8818 9.76237 72.5203 7.9318C72.6925 7.35959 72.8382 6.71849 72.8806 6.03766H73.1137C73.1508 6.73174 73.2806 7.42052 73.4528 7.97419C73.8873 9.38089 74.7959 11.7174 75.4344 13.45L76.5311 16.417H69.3943L69.3969 16.4144Z" fill="#0F2156"/>
<path d="M88.5742 0.0532227H96.2965C101.971 0.0532227 106.268 1.12083 107.007 5.9105C107.37 8.27089 106.138 10.9174 103.616 12.0565V12.1307C106.983 13.1188 108.517 16.017 108.517 18.6662C108.517 21.9167 106.207 26.5474 99.8623 26.5474H88.5742V0.0532227ZM97.2661 10.271C100.951 10.271 101.831 8.7133 101.756 6.843C101.698 5.32504 100.887 4.15146 97.2661 4.15146H94.1904V10.2684H97.2661V10.271ZM98.3575 21.7816C101.984 21.7816 103.327 20.3113 103.245 18.1628C103.171 16.2131 102.045 14.6607 98.3575 14.6607H94.1904V21.7816H98.3575Z" fill="#0F2156"/>
<path d="M120.298 14.4037C118.981 12.536 117.662 10.5968 116.42 8.73185L116.345 8.76893C116.383 10.671 116.42 13.7414 116.42 15.9375V26.55H110.819V0.0532227H116.42L124.288 11.2512L132.153 0.0532227H137.679V26.5474H131.862V15.9349C131.862 13.7387 131.899 10.671 131.936 8.76628L131.862 8.7292C130.616 10.5969 129.3 12.536 127.983 14.401L124.142 19.853L120.301 14.401L120.298 14.4037Z" fill="#0F2156"/>
<path d="M156.936 26.5421H143.457V0.0532227H145.698V24.5791H157.582L156.939 26.5448L156.936 26.5421Z" fill="#0F2156"/>
<path d="M176.579 26.5448L173.461 17.4635H163.085L159.969 26.5421L157.908 26.5315L167.289 0.0532227H169.411C172.555 8.46428 178.802 26.5448 178.802 26.5448H176.579ZM168.704 3.5501C168.547 3.03882 168.428 2.60701 168.388 2.01625H168.192C168.152 2.60701 168.076 3.03882 167.917 3.5501L163.71 15.6567H172.828L168.701 3.5501H168.704Z" fill="#0F2156"/>
<path d="M186.479 26.5445H179.812V0H186.32C191.537 0 194.869 1.79613 194.869 6.69971C194.869 9.60053 193.026 11.6006 191.025 12.5437V12.7398C193.929 13.72 195.849 15.7598 195.849 19.0924C195.849 24.7007 191.537 26.5445 186.477 26.5445H186.479ZM186.665 1.81997H181.931V12.0272H187.226C190.522 12.0272 192.639 9.87074 192.639 6.69176C192.639 3.51278 190.509 1.81997 186.662 1.81997H186.665ZM187.542 13.7915H181.933V24.6583C181.933 24.6583 185.544 24.706 186.718 24.6583C191.145 24.4729 193.545 22.9337 193.545 19.0501C193.545 15.8737 191.349 13.7941 187.542 13.7941V13.7915Z" fill="#0F2156"/>
<path d="M65.6619 47.8489V42.5506H59.4072V41.1412H73.5908V42.5506H67.3361V47.8489H65.6592H65.6619ZM68.3773 38.3755C67.8183 38.0973 67.3944 37.851 67.103 37.639C66.8116 37.4271 66.6156 37.2258 66.5149 37.035H66.499C66.4089 37.2258 66.2155 37.4297 65.9215 37.647C65.6248 37.8642 65.1983 38.1132 64.6393 38.394C64.181 38.6166 63.6697 38.8629 63.1054 39.1305C62.5412 39.3981 61.9054 39.6683 61.2034 39.9358L60.549 38.5768C61.1742 38.3411 61.7888 38.0867 62.3928 37.8139C62.9968 37.541 63.5664 37.2576 64.1042 36.9661C64.4406 36.7887 64.7108 36.6059 64.9175 36.4204C65.1241 36.235 65.283 36.0495 65.3943 35.8588C65.5056 35.6681 65.5824 35.4773 65.6195 35.2813C65.6592 35.0852 65.6778 34.8866 65.6778 34.6852H61.2351V33.2759H71.7973V34.6852H67.3361C67.3361 34.8866 67.3547 35.0852 67.3944 35.2813C67.4342 35.4773 67.5057 35.6707 67.6117 35.8588C67.7176 36.0495 67.8739 36.235 68.0806 36.4204C68.2872 36.6059 68.5574 36.786 68.8938 36.9661C69.4316 37.2576 70.0012 37.5384 70.6052 37.8139C71.2092 38.0867 71.8238 38.3411 72.449 38.5768L71.8106 39.9173C71.1059 39.6497 70.4727 39.3795 69.9085 39.112C69.3442 38.8444 68.8329 38.598 68.3746 38.3755H68.3773Z" fill="#0F2156"/>
<path d="M79.0774 37.6709C79.0323 37.8166 78.8972 38.0179 78.6747 38.2749C78.4522 38.5318 78.2111 38.7782 77.9541 39.0113C77.6071 39.3345 77.1991 39.6922 76.7302 40.0843C76.2613 40.4763 75.803 40.8499 75.3553 41.2075L74.3672 40.0339C74.6348 39.8326 74.8997 39.626 75.1646 39.414C75.4269 39.2021 75.6785 38.9955 75.9196 38.7941C76.1607 38.5928 76.3805 38.3994 76.5819 38.2166C76.7832 38.0312 76.9554 37.8669 77.1011 37.7212C77.313 37.5093 77.4905 37.3053 77.6283 37.1093C77.7687 36.9132 77.88 36.7119 77.9647 36.5052C78.0495 36.2986 78.1078 36.0787 78.1396 35.843C78.174 35.6072 78.1899 35.3449 78.1899 35.0562V33.0269H79.8668V34.9899C79.8668 35.2469 79.8748 35.48 79.8933 35.6867C79.9092 35.8933 79.9463 36.0867 80.0019 36.2642C80.0576 36.4443 80.145 36.6192 80.2616 36.7914C80.3781 36.9636 80.5371 37.141 80.7384 37.3185C81.1305 37.6762 81.5623 38.0471 82.0391 38.4338C82.5133 38.8206 83.0034 39.1915 83.5068 39.5491L82.5345 40.7068C82.0974 40.3836 81.6762 40.0525 81.2682 39.7187C80.8603 39.3822 80.4549 39.0484 80.0523 38.712C79.7953 38.5001 79.586 38.304 79.4244 38.1239C79.2628 37.9464 79.1542 37.7954 79.0986 37.6709H79.0827H79.0774ZM76.8309 42.1824H87.0089V47.9999H85.3479V43.6076H76.8309V42.1824ZM85.3665 32.3911H87.0089V41.377H85.3665V32.3911Z" fill="#0F2156"/>
<path d="M99.7328 44.6623C99.0282 44.7285 98.3473 44.7841 97.6877 44.8292C97.028 44.8742 96.3101 44.9139 95.5339 44.9457C94.7577 44.9802 93.8835 45.0014 92.9086 45.012C91.9364 45.0226 90.7893 45.0279 89.4727 45.0279V43.6185H91.7695C92.4636 43.6185 93.1099 43.6079 93.714 43.5841V42.0582C93.2345 42.0025 92.8053 41.8939 92.4318 41.7323C92.0582 41.5707 91.7377 41.372 91.4754 41.1362C91.2131 40.9005 91.0145 40.6382 90.8794 40.3494C90.7442 40.058 90.678 39.7613 90.678 39.462V38.8235C90.678 38.4871 90.7628 38.1612 90.9297 37.8434C91.0966 37.5255 91.343 37.242 91.6688 36.9956C91.992 36.7492 92.3867 36.5532 92.8503 36.4075C93.3139 36.2618 93.8411 36.1903 94.4345 36.1903C95.0279 36.1903 95.5551 36.2618 96.0187 36.4075C96.4823 36.5532 96.877 36.7492 97.2002 36.9956C97.5234 37.242 97.7698 37.5228 97.9367 37.8434C98.1036 38.1612 98.1884 38.4897 98.1884 38.8235V39.462C98.1884 40.0554 97.942 40.5932 97.4519 41.0806C96.9592 41.5681 96.2624 41.8833 95.3564 42.029V43.539C96.1618 43.5178 96.8956 43.4807 97.5605 43.4304C98.2255 43.3801 98.9036 43.3218 99.5977 43.2556L99.7328 44.6649V44.6623ZM98.8268 35.5571H89.8912V34.1319H93.5974V32.2695H95.2399V34.1319H98.8268V35.5571ZM94.4345 40.7389C94.7816 40.7389 95.0889 40.6991 95.3564 40.6223C95.624 40.5455 95.8518 40.4369 96.0346 40.3044C96.2201 40.1693 96.3552 40.0183 96.4452 39.8514C96.5353 39.6845 96.5803 39.5097 96.5803 39.3322V38.9639C96.5803 38.7864 96.5327 38.6116 96.4373 38.4447C96.3419 38.2778 96.2042 38.1268 96.0267 37.9917C95.8465 37.8566 95.624 37.7506 95.3564 37.6738C95.0889 37.597 94.7816 37.5572 94.4345 37.5572C94.0875 37.5572 93.7669 37.597 93.5047 37.6738C93.2424 37.7533 93.0172 37.8592 92.8344 37.9917C92.649 38.1268 92.5139 38.2778 92.4238 38.4447C92.3337 38.6116 92.2887 38.7864 92.2887 38.9639V39.3322C92.2887 39.5123 92.3364 39.6845 92.4318 39.8514C92.5271 40.0183 92.6649 40.1693 92.8424 40.3044C93.0199 40.4395 93.245 40.5455 93.5126 40.6223C93.7802 40.7018 94.0875 40.7389 94.4345 40.7389ZM100.504 47.8492V32.3887H102.146V47.8492H100.504Z" fill="#0F2156"/>
<path d="M108.501 40.0845C108.422 40.2752 108.308 40.4659 108.157 40.654C108.006 40.8448 107.796 41.0832 107.529 41.3746C107.182 41.7561 106.784 42.1667 106.339 42.6065C105.892 43.0489 105.383 43.531 104.813 44.0555L103.725 42.9323C104.742 42.0263 105.624 41.16 106.374 40.3335C106.631 40.0421 106.843 39.7745 107.012 39.5281C107.179 39.2818 107.312 39.038 107.407 38.7996C107.502 38.5586 107.569 38.3122 107.608 38.0632C107.648 37.8115 107.667 37.536 107.667 37.234V33.5119H109.343V37.234C109.343 37.5704 109.365 37.8698 109.41 38.132C109.455 38.3943 109.526 38.646 109.627 38.887C109.728 39.1281 109.865 39.3665 110.038 39.6076C110.21 39.8487 110.427 40.1083 110.684 40.3865C111.042 40.7785 111.415 41.16 111.807 41.5362C112.199 41.9097 112.644 42.3203 113.148 42.7681L112.075 43.9072C111.495 43.3694 111.004 42.9032 110.607 42.5084C110.21 42.1111 109.849 41.7402 109.526 41.3931C109.29 41.1362 109.081 40.8951 108.898 40.6726C108.713 40.45 108.588 40.254 108.522 40.0845H108.506H108.501ZM118.393 39.4142H116.011V47.8491H114.35V32.3887H116.011V37.9731H118.393V39.4142Z" fill="#0F2156"/>
<path d="M126.309 33.5464C127.427 33.5464 128.272 33.9146 128.85 34.6537C129.425 35.3902 129.714 36.5028 129.714 37.9916V38.042H131.306V32.7092H132.932V47.0941H131.306V39.4831H129.714V39.6341C129.714 41.1203 129.425 42.2329 128.85 42.972C128.275 43.7085 127.427 44.0794 126.309 44.0794C125.191 44.0794 124.344 43.7112 123.769 42.972C123.194 42.2329 122.905 41.1229 122.905 39.6341V37.9916C122.905 36.5055 123.194 35.3928 123.769 34.6537C124.344 33.9172 125.191 33.5464 126.309 33.5464ZM126.309 42.617C126.935 42.617 127.396 42.3733 127.692 41.8885C127.989 41.4011 128.137 40.5878 128.137 39.4487V38.1744C128.137 37.0459 127.986 36.2379 127.684 35.7504C127.382 35.263 126.924 35.0219 126.309 35.0219C125.695 35.0219 125.223 35.2657 124.927 35.7504C124.63 36.2379 124.482 37.0432 124.482 38.1744V39.4487C124.482 40.5878 124.63 41.4011 124.927 41.8885C125.223 42.376 125.684 42.617 126.309 42.617ZM136 47.8491H134.373V32.3887H136V47.8491Z" fill="#0F2156"/>
<path d="M142.053 33.4298C142.623 33.4298 143.144 33.5252 143.621 33.7159C144.096 33.9066 144.506 34.1901 144.853 34.5716C145.2 34.9504 145.47 35.422 145.666 35.9809C145.862 36.5399 145.961 37.1889 145.961 37.9254V39.6685C145.961 40.405 145.862 41.0541 145.666 41.613C145.47 42.172 145.2 42.6382 144.853 43.0118C144.506 43.3853 144.096 43.6688 143.621 43.8595C143.147 44.0502 142.623 44.1456 142.053 44.1456C141.483 44.1456 140.962 44.0502 140.485 43.8595C140.011 43.6688 139.6 43.388 139.253 43.0118C138.906 42.6382 138.636 42.172 138.44 41.613C138.244 41.0541 138.146 40.405 138.146 39.6685V37.9254C138.146 37.1889 138.244 36.5372 138.44 35.973C138.636 35.4087 138.906 34.9398 139.253 34.5636C139.6 34.1901 140.011 33.9066 140.485 33.7159C140.959 33.5252 141.483 33.4298 142.053 33.4298ZM142.053 42.6515C142.355 42.6515 142.646 42.5959 142.925 42.4846C143.203 42.3733 143.449 42.1879 143.661 41.9309C143.873 41.674 144.043 41.3402 144.172 40.9322C144.299 40.5242 144.366 40.0235 144.366 39.4328V38.1585C144.366 37.5651 144.302 37.0671 144.172 36.6591C144.043 36.2511 143.87 35.92 143.653 35.6604C143.436 35.4034 143.189 35.218 142.917 35.1067C142.644 34.9954 142.355 34.9398 142.053 34.9398C141.751 34.9398 141.46 34.9954 141.181 35.1067C140.901 35.218 140.657 35.4034 140.442 35.6604C140.23 35.9173 140.058 36.2511 139.931 36.6591C139.801 37.0671 139.738 37.5678 139.738 38.1585V39.4328C139.738 40.0262 139.801 40.5242 139.931 40.9322C140.058 41.3402 140.23 41.674 140.442 41.9309C140.654 42.1879 140.901 42.3733 141.181 42.4846C141.46 42.5959 141.751 42.6515 142.053 42.6515ZM148.525 47.8491V32.3887H150.186V47.8491H148.525Z" fill="#0F2156"/>
<path d="M153.336 43.7906V33.647H154.978V37.3028H158.886V33.647H160.528V43.7906H153.336ZM154.978 42.3654H158.886V38.7095H154.978V42.3654ZM163.363 47.8491V32.3887H165.024V47.8491H163.363Z" fill="#0F2156"/>
<path d="M170.621 32.9927C171.125 32.9927 171.575 33.0669 171.97 33.2179C172.367 33.3689 172.709 33.5755 173 33.8378C173.292 34.1 173.522 34.4073 173.697 34.7597C173.869 35.112 173.986 35.4882 174.042 35.8908H175.703V32.5874H177.279V41.0885H175.703V37.3161H174.06C174.026 37.7294 173.922 38.1214 173.75 38.4897C173.578 38.8579 173.345 39.1811 173.053 39.454C172.762 39.7268 172.412 39.9441 172.004 40.1004C171.596 40.2567 171.135 40.3361 170.621 40.3361C170.073 40.3361 169.586 40.2461 169.154 40.0686C168.725 39.8911 168.362 39.6473 168.073 39.34C167.782 39.0327 167.559 38.6751 167.403 38.2671C167.246 37.8592 167.167 37.4327 167.167 36.985V36.3465C167.167 35.8988 167.244 35.4723 167.403 35.0643C167.559 34.6563 167.782 34.2987 168.073 33.9914C168.364 33.6841 168.725 33.4404 169.154 33.2629C169.583 33.0854 170.073 32.9953 170.621 32.9953V32.9927ZM170.621 38.9294C170.945 38.9294 171.228 38.8738 171.469 38.7625C171.71 38.6513 171.906 38.5003 172.057 38.3095C172.208 38.1188 172.32 37.9016 172.394 37.6552C172.465 37.4088 172.502 37.1571 172.502 36.9002V36.4313C172.502 36.1743 172.465 35.9226 172.394 35.6763C172.322 35.4299 172.208 35.2153 172.057 35.0299C171.906 34.8444 171.71 34.6987 171.469 34.5848C171.228 34.4736 170.947 34.4179 170.621 34.4179C170.296 34.4179 170.015 34.4736 169.774 34.5848C169.533 34.6961 169.337 34.8444 169.186 35.0299C169.035 35.2153 168.923 35.4272 168.849 35.6683C168.775 35.9094 168.741 36.1637 168.741 36.4313V36.9002C168.741 37.1571 168.778 37.4088 168.849 37.6552C168.921 37.9016 169.035 38.1188 169.186 38.3095C169.337 38.5003 169.533 38.6513 169.774 38.7625C170.015 38.8738 170.296 38.9294 170.621 38.9294ZM180.196 41.9309V47.8332H170.505V41.9309H180.196ZM172.147 46.4239H178.553V43.3376H172.147V46.4239ZM178.603 32.3887H180.196V41.1256H178.603V32.3887Z" fill="#0F2156"/>
<path d="M182.577 40.4524V36.1608H186.768V34.5501H182.526V33.2096H188.344V37.4695H184.153V39.1119H184.958C185.652 39.1119 186.354 39.0907 187.07 39.0457C187.785 39.0007 188.5 38.9292 189.215 38.8285L189.382 40.1372C188.768 40.2272 188.055 40.3014 187.245 40.3623C186.434 40.4233 185.504 40.4551 184.452 40.4551H182.574L182.577 40.4524ZM195.036 47.8806H185.345V41.5253H186.972V43.3373H193.428V41.5094H195.038V47.8806H195.036ZM186.972 46.4713H193.428V44.7096H186.972V46.4713ZM193.444 32.3857H195.036V40.7014H193.444V37.1807H191.883V40.6511H190.307V32.5871H191.883V35.774H193.444V32.3857Z" fill="#0F2156"/>
<path d="M10.3026 47.8439C15.9925 47.8439 20.6051 43.2313 20.6051 37.5413C20.6051 31.8514 15.9925 27.2388 10.3026 27.2388C4.61261 27.2388 0 31.8514 0 37.5413C0 43.2313 4.61261 47.8439 10.3026 47.8439Z" fill="#2C6DFF"/>
<path d="M52.021 37.5385C52.021 43.2289 47.5228 47.7404 41.7185 47.8411C36.7248 47.9258 31.3497 43.862 31.4159 37.5385C31.4477 34.5953 32.473 33.1277 32.8915 31.8243C33.5935 29.6361 34.2082 26.9896 32.8041 24.555C31.355 22.0436 29.0079 20.7985 26.017 20.6422C25.3547 20.6078 21.7359 20.4223 19.1292 18.0249C16.2045 15.3333 15.7012 12.1623 15.7012 10.3397C15.7012 4.64399 20.3133 0.0371094 26.0037 0.0371094C31.6941 0.0371094 36.3063 4.64399 36.3063 10.3397C36.3063 12.2206 35.4321 14.5545 34.8175 15.683C33.5618 17.9931 33.5194 20.8806 34.9287 23.3205C36.3778 25.8346 39.1382 26.9499 41.7158 27.2386C47.6685 27.9035 52.0237 31.8508 52.0237 37.5412L52.021 37.5385Z" fill="#0F2156"/>
</g>
<defs>
<clipPath id="clip0_2_1018">
<rect width="195.852" height="48" fill="white"/>
</clipPath>
</defs>
</svg>
